<svg width="161" height="31" viewBox="0 0 161 31" fill="none" xmlns="http://www.w3.org/2000/svg">
<path d="M47.1097 24.9722C45.0065 24.9722 43.2071 24.6708 41.7114 24.0681C40.2158 23.4653 39.0824 22.6727 38.3112 21.6904C37.54 20.7081 37.131 19.6365 37.0843 18.4756C37.0843 18.297 37.1544 18.1352 37.2946 17.99C37.4348 17.8449 37.6101 17.7724 37.8204 17.7724H41.0103C41.2674 17.7724 41.4777 17.8282 41.6413 17.9398C41.8049 18.0514 41.9568 18.2077 42.097 18.4086C42.3307 19.1677 42.8623 19.804 43.692 20.3174C44.5216 20.8309 45.6608 21.0877 47.1097 21.0877C48.7456 21.0877 49.9783 20.8253 50.8079 20.3007C51.6375 19.7761 52.0523 19.0561 52.0523 18.1407C52.0523 17.538 51.842 17.0356 51.4214 16.6338C51.0007 16.2319 50.3639 15.8803 49.5109 15.5789C48.6579 15.2775 47.3902 14.9148 45.7076 14.4906C42.95 13.8655 40.9285 13.0394 39.6432 12.0125C38.3579 10.9855 37.7153 9.51208 37.7153 7.59211C37.7153 6.29724 38.0892 5.14193 38.837 4.12613C39.5848 3.11033 40.6539 2.31222 42.0444 1.73176C43.4349 1.15131 45.0532 0.861084 46.8994 0.861084C48.8391 0.861084 50.5158 1.1848 51.9296 1.83223C53.3435 2.47966 54.4185 3.28894 55.1546 4.26008C55.8907 5.23123 56.2822 6.19678 56.3289 7.15677C56.3289 7.33537 56.2588 7.49722 56.1186 7.64234C55.9784 7.78745 55.8031 7.86001 55.5928 7.86001H52.2626C51.7485 7.86001 51.398 7.65908 51.211 7.25723C51.0942 6.54282 50.6385 5.94563 49.8439 5.46564C49.0494 4.98565 48.0679 4.74565 46.8994 4.74565C45.6141 4.74565 44.6034 4.98007 43.8672 5.4489C43.1311 5.91773 42.763 6.59863 42.763 7.49164C42.763 8.09442 42.95 8.59674 43.3239 8.99859C43.6978 9.40044 44.282 9.75206 45.0766 10.0535C45.8711 10.3548 47.0279 10.6953 48.5469 11.0748C50.6268 11.5213 52.2802 12.0236 53.5071 12.5818C54.734 13.1399 55.6395 13.8431 56.2237 14.6915C56.808 15.5399 57.1001 16.6226 57.1001 17.9398C57.1001 19.3909 56.6853 20.6467 55.8557 21.7072C55.0261 22.7676 53.8576 23.5769 52.3503 24.135C50.843 24.6932 49.0961 24.9722 47.1097 24.9722ZM59.4137 24.9722C59.18 24.9722 58.9813 24.8941 58.8177 24.7378C58.6542 24.5815 58.5724 24.1685 58.5724 24.1685V1.66482C58.5724 1.41924 58.6542 1.2239 58.8177 1.07879C58.9813 0.933672 59.18 0.861115 59.4137 0.861115H62.3932C62.6269 0.861115 62.8256 0.939254 62.9892 1.09553C63.1527 1.25181 63.2345 1.44157 63.2345 1.66482V12.7492V24.1685C63.2345 24.3918 63.1527 24.5815 62.9892 24.7378C62.8256 24.8941 62.6269 24.9722 62.3932 24.9722H59.4137ZM93.9418 31C93.7081 31 93.5095 30.9274 93.3459 30.7823C93.1823 30.6372 93.1005 30.4419 93.1005 30.1963V8.02744C93.1005 7.78186 93.1823 7.58652 93.3459 7.44141C93.5095 7.29629 93.7081 7.22373 93.9418 7.22373H96.7461C97.0032 7.22373 97.2135 7.30187 97.3771 7.45815C97.5407 7.61443 97.6225 7.80419 97.6225 8.02744V9.36695C98.8611 7.71489 100.719 6.88886 103.196 6.88886C105.556 6.88886 107.367 7.59768 108.629 9.01533C109.891 10.433 110.569 12.3362 110.663 14.725C110.686 14.9929 110.698 15.9305 110.698 15.9305C110.698 15.9305 110.686 16.8682 110.663 17.1361C110.592 19.4802 109.921 21.3723 108.647 22.8123C107.373 24.2523 105.556 24.9722 103.196 24.9722C100.859 24.9722 99.0714 24.1797 97.8328 22.5946V30.1963C97.8328 30.4419 97.7568 30.6372 97.6049 30.7823C97.453 30.9274 97.2486 31 96.9915 31H93.9418ZM101.864 21.3555C104.365 21.3555 105.697 19.8821 105.86 16.9352C105.884 16.7119 105.895 16.377 105.895 15.9305C105.895 15.484 105.884 15.1492 105.86 14.9259C105.697 11.979 104.365 10.5055 101.864 10.5055C100.532 10.5055 99.5387 10.9185 98.8844 11.7446C98.2301 12.5706 97.8795 13.5752 97.8328 14.7585C97.8094 15.0264 97.7977 15.4506 97.7977 16.031C97.7977 16.6115 97.8094 17.0468 97.8328 17.337C97.8795 18.4533 98.2417 19.4021 98.9195 20.1835C99.5972 20.9649 100.579 21.3555 101.864 21.3555ZM122.055 24.9722C121.821 24.9722 121.623 24.8941 121.459 24.7378C121.296 24.5815 121.214 24.3918 121.214 24.1685V8.61348C121.214 8.36791 121.296 8.17256 121.459 8.02745C121.623 7.88233 121.821 7.80978 122.055 7.80978H125C125.257 7.80978 125.461 7.88233 125.613 8.02745C125.765 8.17256 125.841 8.36791 125.841 8.61348V17.0692V25.5249C125.841 25.7481 125.765 24.5815 125.613 24.7378C125.461 24.8941 125.257 24.9722 125 24.9722H122.055Z" fill="black"/>
<path d="M66.5296 9.56788C64.9635 9.56788 63.0242 10.2376 65.1275 11.5771C63.7253 11.5771 64.0758 12.9166 64.9872 12.9166C65.9921 12.9166 67.1723 12.9613 67.7916 13.5864C68.4108 14.2115 68.2473 14.7695 68.2473 16.176V24.1685C68.2473 24.3918 68.329 24.5815 68.4926 24.7378C68.6562 24.8941 68.8549 24.9722 69.0885 24.9722H71.998C72.2551 24.9722 72.4596 24.8941 72.6115 24.7378C72.7634 24.5815 72.8393 24.3918 72.8393 24.1685V15.5956C72.8393 13.2068 72.5122 12.1576 71.297 10.9074C70.0817 9.65715 68.4459 9.56788 66.5296 9.56788Z" fill="black"/>
<path d="M121.459 6.52887C121.623 6.68515 121.821 6.76328 122.055 6.76328H125C125.257 6.76328 125.461 6.68515 125.613 6.52887C125.765 6.3726 125.841 6.18284 125.841 5.95958V4.16798C125.841 3.9224 125.765 3.72706 125.613 3.58195C125.461 3.43683 125.257 3.36428 125 3.36428H122.055C121.821 3.36428 121.623 3.43683 121.459 3.58195C121.296 3.72706 121.214 3.9224 121.214 4.16798V5.95958C121.214 6.18284 121.296 6.3726 121.459 6.52887Z" fill="black"/>
<path d="M117.708 6.60422C119.274 6.60422 121.214 7.27398 119.111 8.61348C120.513 8.61348 120.162 9.95297 119.251 9.95297C118.246 9.95297 117.066 9.99761 116.446 10.6227C115.827 11.2478 115.991 14.7695 115.991 16.176V24.1685C115.991 24.3918 115.909 24.5815 115.745 24.7378C115.582 24.8941 115.383 24.9722 115.149 24.9722H112.24C111.983 24.9722 111.778 24.8941 111.627 24.7378C111.475 24.5815 111.399 24.3918 111.399 24.1685V12.632C111.399 10.2432 111.726 9.19391 112.941 7.9437C114.156 6.69349 115.792 6.60422 117.708 6.60422Z" fill="black"/>
<path fill-rule="evenodd" clip-rule="evenodd" d="M82.8164 6.2869C90.1076 6.2869 91.7685 12.2469 91.7685 16.2654C91.7685 22.7665 85.8544 25.04 82.8164 25.04C76.6469 25.04 74.0795 21.5556 73.5404 16.176C73.5404 8.89812 77.0458 6.2869 82.8164 6.2869ZM87.562 16.2654C87.562 14.3454 87.562 10.9074 82.8164 10.9074C79.149 10.9074 77.7469 12.8273 77.7469 16.176C77.7469 17.8281 78.448 20.9537 82.6544 20.9537C85.7086 20.9537 87.562 19.6142 87.562 16.2654Z" fill="black"/>
<path d="M134.71 7.44143C132.092 7.44143 130.018 8.15582 128.487 9.58464C126.957 11.0135 126.834 13.9811 126.741 16.6155C126.834 19.2499 126.957 21.7017 128.487 23.1305C130.018 24.5594 132.092 25.2737 134.71 25.2737C136.345 25.2737 137.783 25.0058 139.021 24.47C140.26 23.9342 141.212 23.3036 141.878 22.578C142.544 21.8524 142.877 21.2217 142.877 20.6859C142.877 20.485 142.801 20.3287 142.649 20.2171C142.497 20.1055 142.316 20.0497 142.106 20.0497H139.021C138.741 20.0497 138.542 20.0776 138.425 20.1334C138.308 20.1892 138.145 20.3399 137.935 20.5855C137.093 21.6124 136.007 22.1259 134.674 22.1259C133.506 22.1259 132.589 21.7185 131.923 20.9036C131.257 20.0887 130.854 20.1334 130.854 16.5334V14.9092C130.9 13.659 131.257 12.6264 131.923 11.8116C132.589 10.9967 133.506 10.5893 134.674 10.5893C136.007 10.5893 137.093 11.1028 137.935 12.1297C138.145 12.3753 138.308 12.526 138.425 12.5818C138.542 12.6376 138.741 12.6655 139.021 12.6655H142.106C142.316 12.6655 142.497 12.6097 142.649 12.4981C142.801 12.3864 142.877 12.2302 142.877 12.0292C142.877 11.4934 142.544 10.8628 141.878 10.1372C141.212 9.41162 140.26 8.78093 139.021 8.24513C137.783 7.70933 136.345 7.44143 134.71 7.44143Z" fill="black"/>
<path fill-rule="evenodd" clip-rule="evenodd" d="M152.342 25.5249C149.724 25.5249 147.65 24.8105 146.12 23.3817C144.589 21.9529 143.777 19.9213 143.683 17.2869L143.648 16.4497C143.648 13.6591 144.414 11.46 145.944 9.85257C147.475 8.24515 149.596 7.44143 152.307 7.44143C155.088 7.44143 157.232 8.24515 158.739 9.85257C160.246 11.46 161 13.6032 161 16.2823V16.9855C161 17.2088 160.918 17.3985 160.755 17.5548C160.591 17.7111 160.381 17.7892 160.124 17.7892H148.486V18.0571C148.533 19.3073 148.889 20.3399 149.555 21.1547C150.221 21.9696 151.138 22.377 152.307 22.377C153.639 22.377 154.725 21.8636 155.567 20.8366C155.777 20.591 155.941 20.4403 156.057 20.3845C156.174 20.3287 156.373 20.3008 156.653 20.3008H159.738C159.948 20.3008 160.13 20.3566 160.281 20.4682C160.433 20.5799 160.509 20.7361 160.509 20.9371C160.509 21.4729 160.176 22.1036 159.51 22.8291C158.844 23.5547 157.892 24.1854 156.653 24.7212C155.415 25.257 153.978 25.5249 152.342 25.5249ZM156.163 14.8758V14.9428H148.486V14.8758C148.486 13.5586 148.825 12.5037 149.502 11.7112C150.18 10.9186 151.115 10.5223 152.307 10.5223C153.499 10.5223 154.439 10.9186 155.128 11.7112C155.818 12.5037 156.163 13.5586 156.163 14.8758Z" fill="black"/>
<path d="M7.08081 4.82629V6.74418H11.9417L12.4516 10.5498H8.57914V12.4677H12.7086L13.2185 16.2733H10.1854V18.1912H27.8388L31.4205 4.82623H7.08081V4.82629ZM19.6286 10.5498V6.74412H23.1879L22.678 10.5498H19.6286ZM22.421 12.4676L21.9111 16.2733H19.6287V12.4676H22.421V12.4676ZM25.2598 6.74412H28.7874L27.7676 10.5498H24.7499L25.2598 6.74412ZM14.0136 6.74412H17.5729V10.5498H14.5235L14.0136 6.74412ZM14.7805 12.4676H17.5729V16.2733H15.2905L14.7805 12.4676ZM23.983 16.2733L24.4929 12.4677H27.2535L26.2337 16.2733H23.983Z" fill="#E1744E"/>
<path d="M24.3397 23.0175H10.4627L5.00912 1.95124H0V0H6.58667L12.0401 21.0662H24.3397V23.0175Z" fill="#CACACD"/>
<path d="M10.8422 26.3588C9.25611 26.3588 7.96573 25.1097 7.96573 23.5744C7.96573 22.0391 9.25617 20.79 10.8422 20.79C12.4283 20.79 13.7187 22.0391 13.7187 23.5744C13.7187 25.1097 12.4284 26.3588 10.8422 26.3588Z" fill="#5B5B5F"/>
<path d="M11.0635 24.5024C10.5755 24.5024 10.1785 24.1693 10.1785 23.76C10.1785 23.3505 10.5756 23.0175 11.0635 23.0175C11.5516 23.0175 11.9486 23.3506 11.9486 23.76C11.9486 24.1694 11.5516 24.5024 11.0635 24.5024Z" fill="#CACACD"/>
<path d="M24.5611 26.3588C22.975 26.3588 21.6846 25.1097 21.6846 23.5744C21.6846 22.0391 22.9751 20.79 24.5611 20.79C26.1473 20.79 27.4376 22.0391 27.4376 23.5744C27.4376 25.1097 26.1473 26.3588 24.5611 26.3588Z" fill="#5B5B5F"/>
<path d="M24.3398 24.5024C23.8517 24.5024 23.4547 24.1693 23.4547 23.76C23.4547 23.3505 23.8518 23.0175 24.3398 23.0175C24.8278 23.0175 25.2249 23.3506 25.2249 23.76C25.2248 24.1694 24.8278 24.5024 24.3398 24.5024Z" fill="#CACACD"/>
<path d="M31.4204 4.82623H18.5867V18.1912H27.8351L31.4204 4.82623ZM21.9015 16.2733H19.6168V12.4677H22.4119L21.9015 16.2733ZM22.6691 10.5497H19.6168V6.74407H23.1796L22.6691 10.5497ZM26.2284 16.2733H23.9754L24.4858 12.4677H27.2492L26.2284 16.2733ZM24.7431 10.5497L25.2535 6.74407H28.7846L27.7638 10.5497H24.7431Z" fill="#DD5323"/>
</svg>
