<svg width="115" height="27" viewBox="0 0 115 27" fill="none" xmlns="http://www.w3.org/2000/svg">
<path d="M38.15 22C36.65 22 35.3667 21.775 34.3 21.325C33.2333 20.875 32.425 20.2834 31.875 19.55C31.325 18.8167 31.0333 18.0167 31 17.15C31 17.0167 31.05 16.8958 31.15 16.7875C31.25 16.6792 31.375 16.625 31.525 16.625H33.8C33.9833 16.625 34.1333 16.6667 34.25 16.75C34.3667 16.8333 34.475 16.95 34.575 17.1C34.7417 17.6667 35.1208 18.1417 35.7125 18.525C36.3042 18.9084 37.1167 19.1 38.15 19.1C39.3167 19.1 40.1958 18.9042 40.7875 18.5125C41.3792 18.1208 41.675 17.5833 41.675 16.9C41.675 16.45 41.525 16.075 41.225 15.775C40.925 15.475 40.4708 15.2125 39.8625 14.9875C39.2542 14.7625 38.35 14.4917 37.15 14.175C35.1833 13.7083 33.7417 13.0917 32.825 12.325C31.9083 11.5583 31.45 10.4583 31.45 9.025C31.45 8.05833 31.7167 7.19584 32.25 6.4375C32.7833 5.67916 33.5458 5.08334 34.5375 4.65C35.5292 4.21666 36.6833 4 38 4C39.3833 4 40.5792 4.24166 41.5875 4.725C42.5958 5.20834 43.3625 5.8125 43.8875 6.5375C44.4125 7.2625 44.6917 7.98333 44.725 8.7C44.725 8.83333 44.675 8.95417 44.575 9.0625C44.475 9.17083 44.35 9.225 44.2 9.225H41.825C41.4583 9.225 41.2083 9.075 41.075 8.775C40.9917 8.24166 40.6667 7.79584 40.1 7.4375C39.5333 7.07916 38.8333 6.9 38 6.9C37.0833 6.9 36.3625 7.075 35.8375 7.425C35.3125 7.775 35.05 8.28333 35.05 8.95C35.05 9.4 35.1833 9.775 35.45 10.075C35.7167 10.375 36.1333 10.6375 36.7 10.8625C37.2667 11.0875 38.0917 11.3417 39.175 11.625C40.6583 11.9583 41.8375 12.3333 42.7125 12.75C43.5875 13.1667 44.2333 13.6917 44.65 14.325C45.0667 14.9583 45.275 15.7667 45.275 16.75C45.275 17.8333 44.9792 18.7708 44.3875 19.5625C43.7958 20.3542 42.9625 20.9584 41.8875 21.375C40.8125 21.7917 39.5667 22 38.15 22ZM46.925 22C46.7583 22 46.6167 21.9417 46.5 21.825C46.3833 21.7084 46.325 21.4 46.325 21.4V4.60002C46.325 4.41669 46.3833 4.27086 46.5 4.16252C46.6167 4.05419 46.7583 4.00002 46.925 4.00002H49.05C49.2167 4.00002 49.3583 4.05836 49.475 4.17502C49.5917 4.29169 49.65 4.43336 49.65 4.60002V12.875V21.4C49.65 21.5667 49.5917 21.7084 49.475 21.825C49.3583 21.9417 49.2167 22 49.05 22H46.925ZM71.55 25.5C71.3833 25.5 71.2417 25.4458 71.125 25.3375C71.0083 25.2292 70.95 25.0833 70.95 24.9V8.35C70.95 8.16666 71.0083 8.02083 71.125 7.9125C71.2417 7.80416 71.3833 7.75 71.55 7.75H73.55C73.7333 7.75 73.8833 7.80833 74 7.925C74.1167 8.04166 74.175 8.18333 74.175 8.35V9.35C75.0583 8.11666 76.3833 7.5 78.15 7.5C79.8333 7.5 81.125 8.02916 82.025 9.0875C82.925 10.1458 83.4083 11.5667 83.475 13.35C83.4917 13.55 83.5 14.25 83.5 14.25C83.5 14.25 83.4917 14.95 83.475 15.15C83.425 16.9 82.9458 18.3125 82.0375 19.3875C81.1292 20.4625 79.8333 21 78.15 21C76.4833 21 75.2083 20.4084 74.325 19.225V24.9C74.325 25.0833 74.2708 25.2292 74.1625 25.3375C74.0542 25.4458 73.9083 25.5 73.725 25.5H71.55ZM77.2 18.3C78.9833 18.3 79.9333 17.2 80.05 15C80.0667 14.8333 80.075 14.5833 80.075 14.25C80.075 13.9167 80.0667 13.6667 80.05 13.5C79.9333 11.3 78.9833 10.2 77.2 10.2C76.25 10.2 75.5417 10.5083 75.075 11.125C74.6083 11.7417 74.3583 12.4917 74.325 13.375C74.3083 13.575 74.3 13.8917 74.3 14.325C74.3 14.7583 74.3083 15.0833 74.325 15.3C74.3583 16.1333 74.6167 16.8417 75.1 17.425C75.5833 18.0083 76.2833 18.3 77.2 18.3ZM91.6 22C91.4333 22 91.2917 21.9417 91.175 21.825C91.0583 21.7084 91 21.5667 91 21.4V9.7875C91 9.60417 91.0583 9.45834 91.175 9.35C91.2917 9.24167 91.4333 9.1875 91.6 9.1875H93.7C93.8833 9.1875 94.0292 9.24167 94.1375 9.35C94.2458 9.45834 94.3 9.60417 94.3 9.7875V21.4C94.3 21.5667 94.2458 21.7084 94.1375 21.825C94.0292 21.9417 93.8833 22 93.7 22H91.6Z" fill="black"/>
<path d="M52 10.5C50.8831 10.5 49.5 11 51 12C50 12 50.25 13 50.9 13C51.6167 13 52.4583 13.0333 52.9 13.5C53.3417 13.9667 53.225 14.3833 53.225 15.4333V21.4C53.225 21.5667 53.2833 21.7084 53.4 21.825C53.5167 21.9417 53.6583 22 53.825 22H55.9C56.0833 22 56.2292 21.9417 56.3375 21.825C56.4458 21.7084 56.5 21.5667 56.5 21.4V15C56.5 13.2166 56.2667 12.4333 55.4 11.5C54.5333 10.5666 53.3667 10.5 52 10.5Z" fill="black"/>
<path d="M59.3875 20.4C60.4792 21.4667 61.9583 22 63.825 22C64.9917 22 66.0167 21.8 66.9 21.4C67.7833 21 69 20.4 69.5 19C69.8571 18 69.925 17.1 69.925 16.7C69.925 16.455 68.7685 16.3083 68.6602 16.225C68.5518 16.1417 68 16.5 68.6602 16.225H68.5694C67.5 16.225 67.5 16.225 67.5 16.225C67.5 16.225 66.8221 18.6779 66.5 19C66.0115 19.4885 65.3333 19.5 64.5 19.5C63.6667 19.5 62.3125 19.3458 61.8375 18.7375C61.3625 18.1292 61.1083 17.3583 61.075 16.425V16.225H68.6602C68 16.5 68.5435 16.3417 68.6602 16.225C68.7352 16 70 15.7917 70 15.625V15.1C70 13.1 69.4625 11.5 68.3875 10.3C67.3125 9.1 65.7833 8.5 63.8 8.5C61.8667 8.5 60.3542 9.1 59.2625 10.3C58.1708 11.5 57.625 13.1417 57.625 15.225L57.65 15.85C57.7167 17.8167 58.2958 19.3333 59.3875 20.4Z" fill="black"/>
<path d="M91.175 8.23125C91.2917 8.34792 91.4333 8.40625 91.6 8.40625H93.7C93.8833 8.40625 94.0292 8.34792 94.1375 8.23125C94.2458 8.11458 94.3 7.97292 94.3 7.80625V6.46874C94.3 6.28541 94.2458 6.13958 94.1375 6.03124C94.0292 5.92291 93.8833 5.86874 93.7 5.86874H91.6C91.4333 5.86874 91.2917 5.92291 91.175 6.03124C91.0583 6.13958 91 6.28541 91 6.46874V7.80625C91 7.97292 91.0583 8.11458 91.175 8.23125Z" fill="black"/>
<path d="M88.5 8.2875C89.6169 8.2875 91 8.7875 89.5 9.7875C90.5 9.7875 90.25 10.7875 89.6 10.7875C88.8833 10.7875 88.0417 10.8208 87.6 11.2875C87.1583 11.7542 87.275 14.3833 87.275 15.4333V21.4C87.275 21.5667 87.2167 21.7084 87.1 21.825C86.9833 21.9417 86.8417 22 86.675 22H84.6C84.4167 22 84.2708 21.9417 84.1625 21.825C84.0542 21.7084 84 21.5667 84 21.4V12.7875C84 11.0041 84.2333 10.2208 85.1 9.28748C85.9667 8.35415 87.1333 8.2875 88.5 8.2875Z" fill="black"/>
<path d="M102.475 8.03388C100.608 8.03388 99.1292 8.56721 98.0375 9.63388C96.9458 10.7005 96.3667 12.2172 96.3 14.1839L96.275 14.8089C96.275 16.8922 96.8208 18.5339 97.9125 19.7339C99.0042 20.9339 100.517 21.5339 102.45 21.5339C104.433 21.5339 106.5 21.825 107 20.5C107.397 19.4484 107.812 19.7077 108.137 18.3464V17.9383V17.4127C108.137 17.3158 107.696 17.2077 107.512 17.2077L105.05 17.2744C105.025 19.0406 105.15 19.2339 104.5 19.2339C103.85 19.2339 103.3 19.2339 102.45 19.2339C101.6 19.2339 100.933 18.9381 100.45 18.3464C99.9667 17.7547 99.725 16.9672 99.725 15.9839V15.9339V13.8089V13.6089C99.7583 12.6756 100.012 11.9047 100.487 11.2964C100.962 10.688 101.617 10.3839 102.45 10.3839C103.4 10.3839 104.175 10.7672 104.775 11.5339C104.925 11.7172 105.042 11.8297 105.125 11.8714C105.208 11.9131 105.35 11.9339 105.55 11.9339H107.75C107.9 11.9339 108.029 11.8922 108.137 11.8089C108.246 11.7255 108.3 11.6089 108.3 11.4589C108.3 11.0589 108.062 10.5881 107.587 10.0464C107.112 9.50471 106.433 9.03388 105.55 8.63388C104.667 8.23388 103.642 8.03388 102.475 8.03388Z" fill="black"/>
<path d="M105.05 8.58751H111.05V10.5875H105.05V8.58751Z" fill="black"/>
<path d="M111.225 21.225C111.342 21.3417 111.483 21.4 111.65 21.4H113.75C113.933 21.4 114.079 21.3417 114.187 21.225C114.296 21.1084 114.35 20.9667 114.35 20.8V9.18751C114.35 9.00417 114.296 8.85834 114.187 8.75C114.079 8.64167 113.933 8.58751 113.75 8.58751H111.65C111.483 8.58751 111.26 8.58751 111.05 8.58751C110.933 8.69584 111.05 9.00417 111.05 9.18751V20.8C111.05 20.9667 111.108 21.1084 111.225 21.225Z" fill="black"/>
<path d="M108.35 13.625H114.35V15.625H108.35V13.625Z" fill="black"/>
<path d="M105.65 19.4H111.65V21.4H105.65V19.4Z" fill="black"/>
<path d="M16.5028 17.2295L17.8287 15L23 23.8525C21.7624 24.8579 20.3923 25.6339 18.8895 26.1803C17.3867 26.7268 15.7735 27 14.0497 27C12.9889 27 11.9724 26.8907 11 26.6721L16.5028 17.2295ZM1 18H15L9.657 27C7.58292 26.2444 5.80194 25.0778 4.31401 23.5C2.82608 21.9222 1.72142 20.0889 1 18ZM9.32317 13.0107L11 16H0.268293C0.08943 15.0267 0 14.0303 0 13.0107C0 11.0642 0.335362 9.23352 1.0061 7.51872C1.67683 5.80391 2.59349 4.29769 3.7561 3L9.32317 13.0107ZM27.7317 11C27.9106 11.9733 28 12.9697 28 13.9893C28 15.9358 27.6646 17.7549 26.9939 19.4465C26.3232 21.1382 25.4065 22.656 24.2439 24L17 11H27.7317ZM27 10H13L18.343 1C20.4171 1.75556 22.1981 2.92221 23.686 4.5C25.1739 6.07779 26.2786 7.9111 27 10ZM10.3039 11.8689L10.1713 12L5 3.14754C6.23758 2.14207 7.60773 1.36612 9.1105 0.819672C10.6133 0.273221 12.2265 0 13.9503 0C15.0111 0 16.0276 0.109288 17 0.327869L10.3039 11.8689Z" fill="#FF0000"/>
</svg>
