<svg width="1074" height="223" viewBox="0 0 1074 223" fill="none" xmlns="http://www.w3.org/2000/svg">
<g clip-path="url(#clip0)">
<path d="M323 3H312C278.863 3 252 29.8629 252 63V159C252 192.137 278.863 219 312 219H323C356.137 219 383 192.137 383 159V63C383 29.8629 356.137 3 323 3Z" stroke="black" stroke-width="3"/>
<path d="M716 2V218M716 218H781M716 218H650M781 2H749.5H677H650" stroke="black" stroke-width="3"/>
<path d="M192 3H137C131.477 3 127 7.47715 127 13V37V109M127 109H187C214.614 109 237 131.386 237 159V219M127 109V219" stroke="black" stroke-width="3"/>
<path d="M398 219V112.484M398 112.484V14.6151C398 9.64944 401.8 5.39535 406.732 4.81373C561.742 -13.4683 518.375 112.484 456.761 112.484H398Z" stroke="black" stroke-width="3"/>
<path d="M528 219V113.221V11.1381C528 6.1557 531.811 1.89201 536.765 1.35259C681.747 -14.4367 639.397 113.221 579.801 113.221M579.801 113.221L622.637 219M579.801 113.221H549.916" stroke="black" stroke-width="3"/>
<path d="M927 3H836C813.909 3 796 20.9086 796 43V179C796 201.091 813.909 219 836 219H927" stroke="black" stroke-width="3"/>
<path d="M1074 2H982C959.909 2 942 19.9086 942 42V112.5V183C942 205.091 959.909 223 982 223H1074" stroke="black" stroke-width="3"/>
<path d="M921 111H1051" stroke="black" stroke-width="3"/>
<path d="M112 3H40C17.9086 3 0 20.9086 0 43V77.353C0 99.4444 17.9086 117.353 40 117.353H72C94.0914 117.353 112 135.262 112 157.353V167.199V179C112 201.091 94.0914 219 72 219H0" stroke="black" stroke-width="3"/>
</g>
<defs>
<clipPath id="clip0">
<rect width="1074" height="223" fill="white"/>
</clipPath>
</defs>
</svg>
