<svg width="234" height="55" viewBox="0 0 234 55" fill="none" xmlns="http://www.w3.org/2000/svg">
<path d="M30.896 36.216C30.896 38.904 30.368 41.352 29.312 43.56C28.304 45.72 26.912 47.592 25.136 49.176C23.408 50.76 21.344 51.984 18.944 52.848C16.592 53.712 14.048 54.144 11.312 54.144C9.392 54.144 7.472 53.64 5.552 52.632C3.632 51.576 1.784 49.92 0.00800003 47.664L5.336 37.224C5.672 37.848 6.176 38.496 6.848 39.168C7.52 39.792 8.264 40.344 9.08 40.824C9.944 41.304 10.784 41.712 11.6 42.048C12.464 42.336 13.232 42.48 13.904 42.48C14.48 42.48 15.08 42.384 15.704 42.192C16.328 42 16.904 41.712 17.432 41.328C17.96 40.944 18.368 40.512 18.656 40.032C18.992 39.504 19.16 38.904 19.16 38.232C19.16 37.08 18.776 36.024 18.008 35.064C17.288 34.056 16.376 33.12 15.272 32.256C14.168 31.344 12.968 30.432 11.672 29.52C10.376 28.608 9.176 27.648 8.072 26.64C7.016 25.632 6.104 24.504 5.336 23.256C4.568 22.008 4.184 20.616 4.184 19.08C4.184 16.584 4.928 14.256 6.416 12.096C7.904 9.936 9.752 8.088 11.96 6.552C14.216 4.968 16.664 3.72 19.304 2.808C21.944 1.896 24.44 1.44 26.792 1.44C28.088 1.44 29.312 1.608 30.464 1.944C31.616 2.232 32.6 2.736 33.416 3.456C34.28 4.128 34.952 4.992 35.432 6.048C35.96 7.104 36.224 8.424 36.224 10.008C36.224 10.68 36.152 11.352 36.008 12.024C35.912 12.696 35.816 13.416 35.72 14.184L25.28 17.208C25.376 16.824 25.448 16.44 25.496 16.056C25.592 15.672 25.64 15.288 25.64 14.904C25.64 13.464 25.376 12.432 24.848 11.808C24.368 11.136 23.72 10.8 22.904 10.8C22.52 10.8 22.04 10.944 21.464 11.232C20.936 11.52 20.384 11.904 19.808 12.384C19.28 12.816 18.824 13.344 18.44 13.968C18.056 14.592 17.864 15.264 17.864 15.984C17.864 17.136 18.176 18.096 18.8 18.864C19.472 19.632 20.288 20.352 21.248 21.024C22.208 21.696 23.24 22.392 24.344 23.112C25.496 23.784 26.552 24.672 27.512 25.776C28.472 26.88 29.264 28.272 29.888 29.952C30.56 31.584 30.896 33.672 30.896 36.216ZM30.5135 54.144C31.8575 47.424 33.1535 40.872 34.4015 34.488C34.8815 31.752 35.3855 28.92 35.9135 25.992C36.4415 23.016 36.9215 20.088 37.3535 17.208C37.8335 14.328 38.2655 11.544 38.6495 8.856C39.0815 6.12 39.4175 3.648 39.6575 1.44C40.7615 1.488 41.7695 1.56 42.6815 1.656C43.6415 1.704 44.5775 1.752 45.4895 1.8C46.4015 1.848 47.3135 1.896 48.2255 1.944C49.1855 1.944 50.2175 1.944 51.3215 1.944C50.5055 5.352 49.6895 8.76 48.8735 12.168C48.1055 15.576 47.3855 19.008 46.7135 22.464L53.8415 21.672C54.5135 18.264 55.1135 14.976 55.6415 11.808C56.1695 8.592 56.8655 5.28 57.7295 1.872C58.8335 1.68 60.0575 1.536 61.4015 1.44C62.7455 1.296 63.9935 1.176 65.1455 1.08C66.2975 0.983997 67.2575 0.911997 68.0255 0.863997C68.8415 0.767999 69.2495 0.719999 69.2495 0.719999C68.5775 2.88 67.9295 5.256 67.3055 7.848C66.7295 10.392 66.1535 13.056 65.5775 15.84C65.0015 18.576 64.4495 21.36 63.9215 24.192C63.3935 27.024 62.9135 29.712 62.4815 32.256C61.4255 38.352 60.4415 44.592 59.5295 50.976L48.2975 52.272C48.9215 49.392 49.4735 46.584 49.9535 43.848C50.4335 41.544 50.9135 39.144 51.3935 36.648C51.9215 34.152 52.3295 32.016 52.6175 30.24L45.6335 30.888C45.2975 32.712 44.8895 34.824 44.4095 37.224C43.9775 39.624 43.5695 41.904 43.1855 44.064C42.6575 46.656 42.1295 49.248 41.6015 51.84L30.5135 54.144ZM102.039 15.048C102.039 18.984 101.607 22.704 100.743 26.208C99.9268 29.664 98.8228 32.856 97.4308 35.784C96.0388 38.664 94.4068 41.256 92.5348 43.56C90.7108 45.816 88.7908 47.76 86.7748 49.392C84.7588 50.976 82.7188 52.2 80.6548 53.064C78.5908 53.88 76.6228 54.288 74.7508 54.288C73.1668 54.288 71.7268 54 70.4308 53.424C69.1348 52.8 68.0068 51.912 67.0468 50.76C66.0868 49.56 65.3188 48.048 64.7428 46.224C64.2148 44.352 63.9508 42.12 63.9508 39.528C63.9508 36.84 64.2868 34.008 64.9588 31.032C65.6308 28.056 66.5428 25.104 67.6948 22.176C68.8468 19.248 70.2628 16.464 71.9428 13.824C73.6228 11.184 75.4708 8.856 77.4868 6.84C79.5028 4.776 81.6628 3.144 83.9668 1.944C86.2708 0.743998 88.6708 0.143998 91.1668 0.143998C93.3268 0.143998 95.1028 0.599998 96.4948 1.512C97.9348 2.376 99.0388 3.528 99.8068 4.968C100.623 6.36 101.199 7.944 101.535 9.72C101.871 11.496 102.039 13.272 102.039 15.048ZM74.6788 37.656C74.6788 38.184 74.7748 38.736 74.9668 39.312C75.1588 39.888 75.4228 40.392 75.7588 40.824C76.0948 41.256 76.5028 41.64 76.9828 41.976C77.5108 42.264 78.0628 42.408 78.6388 42.408C80.7988 42.408 82.7188 41.664 84.3988 40.176C86.0788 38.688 87.4708 36.864 88.5748 34.704C89.6788 32.544 90.5188 30.24 91.0948 27.792C91.7188 25.344 92.0308 23.112 92.0308 21.096C92.0308 20.52 91.9828 19.896 91.8868 19.224C91.8388 18.552 91.6948 17.928 91.4548 17.352C91.2628 16.776 90.9268 16.296 90.4468 15.912C90.0148 15.48 89.4148 15.264 88.6468 15.264C87.1108 15.264 85.6948 15.648 84.3988 16.416C83.1028 17.184 81.9268 18.216 80.8708 19.512C79.8628 20.76 78.9748 22.2 78.2068 23.832C77.4388 25.416 76.7668 27.048 76.1908 28.728C75.6628 30.36 75.2788 31.968 75.0388 33.552C74.7988 35.136 74.6788 36.504 74.6788 37.656ZM97.0106 54.072C98.4506 47.592 99.8186 41.256 101.115 35.064C101.643 32.472 102.195 29.736 102.771 26.856C103.347 23.976 103.899 21.144 104.427 18.36C104.955 15.576 105.459 12.888 105.939 10.296C106.419 7.704 106.827 5.328 107.163 3.168C108.555 2.736 109.923 2.376 111.267 2.088C112.611 1.752 113.979 1.464 115.371 1.224C116.811 0.983997 118.155 0.863997 119.403 0.863997C121.563 0.863997 123.363 1.224 124.803 1.944C126.291 2.664 127.491 3.648 128.403 4.896C129.315 6.096 129.963 7.512 130.347 9.144C130.731 10.776 130.923 12.528 130.923 14.4C130.923 17.088 130.419 19.68 129.411 22.176C128.451 24.672 127.131 26.904 125.451 28.872C123.819 30.792 121.923 32.328 119.763 33.48C117.651 34.632 115.443 35.208 113.139 35.208H112.347C111.963 36.84 111.603 38.616 111.267 40.536C110.931 42.456 110.643 44.232 110.403 45.864C110.067 47.784 109.755 49.704 109.467 51.624L97.0106 54.072ZM117.099 9.576C116.571 12.744 116.043 15.744 115.515 18.576C114.987 21.408 114.411 24.432 113.787 27.648C114.555 27.456 115.347 27.024 116.163 26.352C117.027 25.632 117.819 24.72 118.539 23.616C119.259 22.464 119.835 21.144 120.267 19.656C120.699 18.168 120.915 16.608 120.915 14.976C120.915 13.2 120.507 11.856 119.691 10.944C118.923 10.032 118.059 9.576 117.099 9.576ZM124.796 54.072C126.092 47.688 127.34 41.448 128.54 35.352C128.972 32.76 129.452 30.072 129.98 27.288C130.508 24.456 130.988 21.672 131.42 18.936C131.9 16.152 132.332 13.488 132.716 10.944C133.148 8.352 133.484 6 133.724 3.888C136.46 3.024 139.412 2.4 142.58 2.016C145.748 1.584 148.892 1.368 152.012 1.368C153.884 1.368 155.42 1.584 156.62 2.016C157.868 2.448 158.828 3.072 159.5 3.888C160.22 4.656 160.724 5.568 161.012 6.624C161.3 7.68 161.444 8.856 161.444 10.152C161.444 12.072 161.108 13.968 160.436 15.84C159.764 17.664 158.852 19.416 157.7 21.096C156.596 22.728 155.3 24.24 153.812 25.632C152.372 26.976 150.812 28.08 149.132 28.944C149.996 30.864 150.908 32.976 151.868 35.28C152.876 37.536 153.812 39.696 154.676 41.76C155.636 44.16 156.62 46.56 157.628 48.96L146.468 52.848C145.508 49.776 144.644 46.896 143.876 44.208C143.54 43.104 143.204 41.976 142.868 40.824C142.532 39.624 142.22 38.496 141.932 37.44C141.644 36.384 141.404 35.448 141.212 34.632C141.02 33.768 140.9 33.072 140.852 32.544L139.916 32.832C139.628 34.368 139.268 36.168 138.836 38.232C138.452 40.296 138.092 42.288 137.756 44.208C137.324 46.464 136.892 48.744 136.46 51.048L124.796 54.072ZM141.716 22.824C142.628 22.728 143.732 22.344 145.028 21.672C146.372 21 147.644 20.208 148.844 19.296C150.044 18.336 151.076 17.352 151.94 16.344C152.804 15.336 153.236 14.448 153.236 13.68C153.236 13.152 153.068 12.744 152.732 12.456C152.396 12.12 151.916 11.88 151.292 11.736C150.716 11.544 150.068 11.424 149.348 11.376C148.628 11.328 147.884 11.304 147.116 11.304C146.588 11.304 146.036 11.328 145.46 11.376C144.932 11.376 144.452 11.376 144.02 11.376L141.716 22.824ZM168.74 52.56C168.308 52.56 167.444 52.632 166.148 52.776C164.9 52.872 163.604 53.016 162.26 53.208C160.916 53.352 159.692 53.496 158.588 53.64C157.532 53.784 156.956 53.88 156.86 53.928C157.34 51.864 157.82 49.584 158.3 47.088C158.828 44.544 159.356 41.904 159.884 39.168C160.412 36.384 160.916 33.576 161.396 30.744C161.876 27.912 162.332 25.176 162.764 22.536C163.772 16.392 164.78 10.08 165.788 3.6L177.02 1.8C175.916 8.232 174.836 14.544 173.78 20.736C173.348 23.376 172.892 26.112 172.412 28.944C171.98 31.776 171.524 34.584 171.044 37.368C170.612 40.152 170.204 42.864 169.82 45.504C169.436 48.096 169.076 50.448 168.74 52.56ZM201.799 38.52C200.647 41.16 199.351 43.464 197.911 45.432C196.519 47.352 195.031 48.984 193.447 50.328C191.911 51.624 190.351 52.584 188.767 53.208C187.183 53.832 185.647 54.144 184.159 54.144C182.671 54.144 181.303 53.808 180.055 53.136C178.855 52.464 177.799 51.456 176.887 50.112C175.975 48.768 175.231 47.112 174.655 45.144C174.127 43.176 173.863 40.872 173.863 38.232C173.863 33.72 174.487 29.28 175.735 24.912C176.983 20.496 178.735 16.536 180.991 13.032C183.247 9.528 185.911 6.72 188.983 4.608C192.103 2.448 195.535 1.368 199.279 1.368C200.431 1.368 201.535 1.608 202.591 2.088C203.647 2.568 204.559 3.24 205.327 4.104C206.095 4.968 206.695 6.024 207.127 7.272C207.607 8.52 207.847 9.912 207.847 11.448C207.847 11.736 207.847 12.048 207.847 12.384C207.847 12.672 207.823 12.984 207.775 13.32L198.343 15.84C197.767 14.64 197.095 14.04 196.327 14.04C195.559 14.04 194.743 14.496 193.879 15.408C193.063 16.272 192.247 17.424 191.431 18.864C190.615 20.256 189.823 21.84 189.055 23.616C188.287 25.344 187.615 27.096 187.039 28.872C186.463 30.648 185.983 32.352 185.599 33.984C185.263 35.568 185.095 36.864 185.095 37.872C185.095 39.408 185.287 40.488 185.671 41.112C186.103 41.736 186.655 42.048 187.327 42.048C187.855 42.048 188.455 41.856 189.127 41.472C189.799 41.04 190.423 40.512 190.999 39.888C191.575 39.216 192.103 38.472 192.583 37.656C193.063 36.84 193.399 36.024 193.591 35.208L201.799 38.52ZM201.443 54.072L210.875 2.88L233.627 0.935997C233.291 1.992 233.003 3.072 232.763 4.176C232.523 5.088 232.283 6.048 232.043 7.056C231.851 8.016 231.683 8.88 231.539 9.648C231.059 9.696 230.363 9.744 229.451 9.792C228.587 9.792 227.651 9.816 226.643 9.864C225.635 9.864 224.603 9.864 223.547 9.864C222.539 9.864 221.651 9.864 220.883 9.864L218.363 22.752C219.851 22.656 221.243 22.584 222.539 22.536C223.595 22.488 224.675 22.464 225.779 22.464C226.883 22.464 227.699 22.44 228.227 22.392C228.035 23.736 227.843 25.056 227.651 26.352C227.507 27.648 227.315 28.968 227.075 30.312C226.595 30.36 225.803 30.408 224.699 30.456C223.643 30.456 222.563 30.48 221.459 30.528C220.211 30.576 218.843 30.624 217.355 30.672L214.907 43.92L225.419 42.264L224.699 50.472L201.443 54.072Z" fill="white"/>
</svg>
