<svg id="Capa_1" enable-background="new 0 0 512 512" height="20" viewBox="0 0 512 512" width="20" xmlns="http://www.w3.org/2000/svg"><path d="m511.062 122.423c2.456-10.469.034-21.307-6.645-29.734-6.679-8.428-16.677-13.261-27.43-13.261h-352.682l-5.251-22.453c-5.849-25.009-27.872-42.475-53.555-42.475h-50.499c-8.284 0-15 6.716-15 15s6.716 15 15 15h50.499c11.674 0 21.685 7.939 24.343 19.307l61.563 263.238c-17.993 10.117-30.182 29.384-30.182 51.455 0 25.191 15.874 46.734 38.14 55.179-2.65 5.731-4.14 12.103-4.14 18.821 0 24.813 20.187 45 45 45s45-20.187 45-45c0-5.258-.915-10.305-2.58-15h131.161c-1.665 4.695-2.58 9.742-2.58 15 0 24.813 20.187 45 45 45s45-20.187 45-45-20.187-45-45-45h-236c-15.991 0-29-13.009-29-29s13.009-29 29-29h249.82c16.332 0 30.344-11.104 34.075-27.004zm-295.839 330.077c0 8.271-6.729 15-15 15s-15-6.729-15-15 6.729-15 15-15 15 6.729 15 15zm201.001 15c-8.271 0-15-6.729-15-15s6.729-15 15-15 15 6.729 15 15-6.729 15-15 15zm45.942-268.015h-309.783l-7.016-30h323.838zm-302.767 30h295.728l-7.039 30h-281.673zm317.589-120.057c2.103 0 3.358 1.187 3.918 1.895s1.43 2.2.949 4.248l-5.611 23.915h-337.893l-7.029-30.057h345.666zm-46.945 210.072h-249.593l-7.02-30.015h267.618l-6.138 26.158c-.532 2.271-2.534 3.857-4.867 3.857z"/></svg>